<svg xmlns="http://www.w3.org/2000/svg" viewBox="0 0 32 32" role="img" aria-label="PianoApp">
  <rect width="32" height="32" rx="8" fill="#1e1e24"/>

  <rect
    x="4.5"
    y="11.5"
    width="23"
    height="15"
    rx="2.25"
    fill="#25252d"
    stroke="#fbbf24"
    stroke-width="1.1"
  />

  <g fill="#f3f4f6">
    <rect x="5.525" y="13.1" width="2.35" height="11" rx="0.45"/>
    <rect x="8.675" y="13.1" width="2.35" height="11" rx="0.45"/>
    <rect x="11.825" y="13.1" width="2.35" height="11" rx="0.45"/>
    <rect x="14.825" y="13.1" width="2.35" height="11" rx="0.45"/>
    <rect x="17.975" y="13.1" width="2.35" height="11" rx="0.45"/>
    <rect x="21.125" y="13.1" width="2.35" height="11" rx="0.45"/>
    <rect x="24.275" y="13.1" width="2.35" height="11" rx="0.45"/>
  </g>

  <g fill="#111827" stroke="#fbbf24" stroke-width="0.55">
    <rect x="7.225" y="13.1" width="1.55" height="5.9" rx="0.3"/>
    <rect x="10.375" y="13.1" width="1.55" height="5.9" rx="0.3"/>
    <rect x="20.525" y="13.1" width="1.55" height="5.9" rx="0.3"/>
    <rect x="23.675" y="13.1" width="1.55" height="5.9" rx="0.3"/>
  </g>

  <path
    fill="none"
    stroke="#fbbf24"
    stroke-width="1.35"
    stroke-linecap="round"
    d="M7 24.75h18"
  />
</svg>
